<?xml version="1.0" standalone="no"?>
<!DOCTYPE svg PUBLIC "-//W3C//DTD SVG 20010904//EN"
 "http://www.w3.org/TR/2001/REC-SVG-20010904/DTD/svg10.dtd">
<svg version="1.0" xmlns="http://www.w3.org/2000/svg"
 width="1350.000000pt" height="68.000000pt" viewBox="0 0 1350.000000 68.000000"
 preserveAspectRatio="xMidYMid meet">

<g transform="translate(0.000000,68.000000) scale(0.100000,-0.100000)"
fill="#000000" stroke="none">
<path d="M646 566 c3 -9 11 -16 16 -16 13 0 5 23 -10 28 -7 2 -10 -2 -6 -12z"/>
<path d="M580 489 c0 -5 -4 -7 -10 -4 -5 3 -10 -1 -10 -10 0 -10 5 -13 12 -9
7 4 8 3 4 -5 -4 -6 -12 -9 -17 -5 -5 3 -17 0 -26 -8 -15 -11 -16 -11 -10 5 4
10 2 17 -6 18 -7 0 -20 2 -31 4 -16 3 -16 1 4 -20 13 -14 19 -29 15 -36 -4 -6
-9 -32 -10 -56 -1 -26 -8 -49 -16 -54 -9 -6 -10 -9 -2 -9 6 0 15 -21 19 -47 4
-30 15 -54 31 -69 17 -16 20 -24 11 -28 -19 -8 112 0 142 8 l25 8 -25 -21
c-14 -11 -20 -21 -15 -21 6 0 3 -5 -5 -10 -9 -6 -10 -10 -3 -10 6 0 21 14 33
30 18 25 19 31 6 36 -8 3 -23 1 -35 -5 -32 -18 -36 -13 -12 13 15 16 25 42 28
70 3 25 10 46 15 46 5 0 4 9 -2 19 -5 11 -10 35 -10 54 0 38 -43 92 -66 83 -8
-3 -16 -1 -19 4 -3 4 0 10 7 12 6 2 8 10 4 16 -9 15 -26 16 -26 1z m35 -69 c4
-6 -8 -10 -30 -10 -22 0 -34 4 -30 10 3 6 17 10 30 10 13 0 27 -4 30 -10z
m-18 -136 c-3 -3 -12 -4 -19 -1 -8 3 -5 6 6 6 11 1 17 -2 13 -5z"/>
<path d="M690 479 c0 -5 -4 -8 -8 -5 -4 2 -14 1 -22 -4 -12 -7 -12 -12 -2 -22
9 -9 15 -8 27 8 15 19 19 34 10 34 -3 0 -5 -5 -5 -11z"/>
<path d="M452 368 c-8 -10 -4 -13 15 -15 15 0 22 2 17 6 -5 3 -12 10 -15 14
-3 4 -11 2 -17 -5z"/>
<path d="M697 367 c-3 -7 3 -13 14 -13 13 0 15 3 7 13 -6 7 -12 13 -13 13 -2
0 -5 -6 -8 -13z"/>
<path d="M345 241 c-3 -5 -2 -12 3 -15 5 -3 9 1 9 9 0 17 -3 19 -12 6z"/>
<path d="M470 171 c0 -22 13 -41 29 -41 14 1 14 2 -1 14 -25 18 -22 29 5 21
17 -5 19 -4 7 4 -19 13 -40 14 -40 2z"/>
<path d="M510 120 c-9 -6 -10 -10 -3 -10 6 0 15 5 18 10 8 12 4 12 -15 0z"/>
</g>
</svg>
