<?xml version="1.0" standalone="no"?>
<!DOCTYPE svg PUBLIC "-//W3C//DTD SVG 20010904//EN"
 "http://www.w3.org/TR/2001/REC-SVG-20010904/DTD/svg10.dtd">
<svg version="1.0" xmlns="http://www.w3.org/2000/svg"
 width="1350.000000pt" height="68.000000pt" viewBox="0 0 1350.000000 68.000000"
 preserveAspectRatio="xMidYMid meet">

<g transform="translate(0.000000,68.000000) scale(0.100000,-0.100000)"
fill="#000000" stroke="none">
<path d="M530 340 l0 -340 60 0 60 0 0 340 0 340 -60 0 -60 0 0 -340z"/>
<path d="M1610 340 l0 -340 60 0 60 0 0 340 0 340 -60 0 -60 0 0 -340z"/>
<path d="M2650 475 l0 -195 485 0 485 0 0 60 0 60 -425 0 -425 0 0 135 0 135
-60 0 -60 0 0 -195z"/>
<path d="M4650 553 c-27 -38 -50 -72 -50 -76 0 -11 122 77 134 96 12 19 1 47
-19 47 -8 0 -38 -30 -65 -67z"/>
<path d="M3650 596 c0 -12 10 -16 40 -16 33 0 41 -4 45 -22 3 -13 4 -120 3
-238 l-3 -215 -42 -3 c-29 -2 -43 -8 -43 -18 0 -11 23 -14 130 -14 107 0 130
3 130 14 0 11 -14 16 -47 18 l-48 3 -3 103 -3 102 64 0 c137 0 216 49 224 137
5 62 -20 110 -73 137 -34 18 -61 21 -206 24 -148 3 -168 2 -168 -12z m319 -30
c47 -25 64 -95 40 -165 -15 -43 -54 -61 -134 -61 l-65 0 0 113 c0 63 3 117 7
120 12 13 124 7 152 -7z"/>
<path d="M5576 595 c-9 -9 -16 -20 -16 -25 0 -15 32 -41 48 -38 24 5 39 35 26
56 -15 23 -38 26 -58 7z"/>
<path d="M6947 453 c-26 -87 -63 -209 -81 -271 -34 -111 -34 -112 -12 -112 19
0 28 23 99 263 43 144 77 265 77 270 0 4 -8 7 -18 7 -15 0 -27 -29 -65 -157z"/>
<path d="M5311 507 c-12 -50 -42 -93 -71 -102 -30 -10 -24 -25 10 -25 l30 0 0
-125 c0 -71 5 -135 11 -149 24 -51 105 -58 148 -12 24 26 41 96 22 96 -6 0
-11 -11 -11 -24 0 -32 -37 -76 -64 -76 -41 0 -46 17 -46 157 l0 133 55 0 c42
0 55 3 55 15 0 12 -13 15 -55 15 l-55 0 0 70 c0 79 -12 91 -29 27z"/>
<path d="M4340 407 c-13 -7 -37 -37 -52 -67 l-28 -55 0 64 c0 61 -1 63 -22 57
-13 -3 -40 -6 -60 -6 -27 0 -38 -4 -38 -15 0 -9 9 -15 24 -15 41 0 47 -19 44
-146 l-3 -119 -32 -3 c-21 -2 -33 -9 -33 -18 0 -11 20 -14 105 -14 85 0 105 3
105 14 0 10 -13 16 -37 18 l-38 3 -3 63 c-4 77 18 159 54 201 34 41 44 39 44
-8 0 -32 4 -41 22 -47 43 -13 64 50 28 86 -23 23 -45 25 -80 7z"/>
<path d="M4590 409 c-45 -14 -80 -46 -80 -75 0 -29 24 -47 51 -39 17 6 20 12
15 37 -8 42 8 58 58 58 55 0 86 -30 86 -83 0 -32 -4 -37 -27 -42 -160 -32
-222 -81 -197 -154 20 -56 133 -66 192 -16 l29 24 25 -30 c29 -32 63 -37 94
-14 18 14 17 14 -12 15 -20 0 -34 6 -38 16 -3 9 -6 65 -6 124 0 114 -8 148
-41 169 -28 17 -107 22 -149 10z m130 -210 c0 -33 -6 -47 -34 -75 -36 -36 -90
-46 -114 -22 -19 19 -14 73 7 92 23 21 86 45 119 46 19 0 22 -5 22 -41z"/>
<path d="M4994 402 c-52 -25 -80 -61 -93 -122 -13 -58 -6 -102 22 -149 21 -35
84 -70 125 -71 40 0 91 28 111 61 22 35 17 64 -5 33 -33 -47 -57 -64 -88 -64
-65 0 -106 55 -106 144 0 98 37 156 101 156 37 0 70 -22 49 -35 -18 -11 -11
-53 10 -60 52 -17 67 62 19 97 -38 29 -96 32 -145 10z"/>
<path d="M5854 402 c-52 -25 -80 -61 -93 -122 -13 -58 -6 -102 22 -149 21 -35
84 -70 125 -71 40 0 91 28 111 61 22 35 17 64 -5 33 -33 -47 -57 -64 -88 -64
-65 0 -106 55 -106 144 0 98 37 156 101 156 37 0 70 -22 49 -35 -18 -11 -11
-53 10 -60 52 -17 67 62 19 97 -38 29 -96 32 -145 10z"/>
<path d="M6196 410 c-39 -12 -76 -49 -76 -76 0 -29 24 -47 50 -39 19 6 21 12
15 42 -8 43 3 53 58 53 50 0 87 -35 87 -84 0 -37 -3 -40 -75 -51 -60 -9 -138
-55 -149 -87 -33 -93 106 -145 193 -73 l29 25 16 -25 c20 -30 53 -40 90 -25
33 12 27 24 -12 25 l-27 0 -5 131 c-5 143 -11 157 -67 181 -36 15 -83 16 -127
3z m134 -211 c0 -86 -114 -147 -156 -84 -36 55 32 119 134 124 19 1 22 -4 22
-40z"/>
<path d="M6594 410 c-32 -13 -64 -59 -64 -92 0 -61 32 -87 135 -108 72 -15 85
-24 85 -61 0 -35 -32 -59 -78 -59 -49 0 -88 25 -109 70 -28 60 -42 52 -36 -23
3 -34 7 -64 10 -66 2 -3 11 2 20 11 15 15 19 15 52 -3 42 -23 70 -24 115 -5
44 18 66 52 66 99 0 48 -31 81 -86 91 -135 24 -173 57 -124 106 44 44 132 16
160 -50 18 -43 30 -37 30 14 0 62 -7 78 -29 64 -13 -8 -25 -6 -49 6 -34 17
-65 19 -98 6z"/>
<path d="M5563 403 c-61 -5 -75 -30 -20 -35 l32 -3 0 -130 0 -130 -27 -3 c-16
-2 -28 -9 -28 -18 0 -11 19 -14 95 -14 76 0 95 3 95 14 0 9 -12 16 -32 18
l-33 3 -3 153 c-2 113 -6 152 -15 150 -6 -1 -36 -3 -64 -5z"/>
</g>
</svg>
