<?xml version="1.0" standalone="no"?>
<!DOCTYPE svg PUBLIC "-//W3C//DTD SVG 20010904//EN"
 "http://www.w3.org/TR/2001/REC-SVG-20010904/DTD/svg10.dtd">
<svg version="1.0" xmlns="http://www.w3.org/2000/svg"
 width="1350.000000pt" height="68.000000pt" viewBox="0 0 1350.000000 68.000000"
 preserveAspectRatio="xMidYMid meet">

<g transform="translate(0.000000,68.000000) scale(0.100000,-0.100000)"
fill="#000000" stroke="none">
<path d="M530 340 l0 -340 60 0 60 0 0 145 0 145 425 0 425 0 0 60 0 60 -425
0 -425 0 0 135 0 135 -60 0 -60 0 0 -340z"/>
<path d="M2687 463 c-26 -87 -63 -209 -81 -271 -34 -111 -34 -112 -12 -112 19
0 28 23 99 263 43 144 77 265 77 270 0 4 -8 7 -18 7 -15 0 -27 -29 -65 -157z"/>
<path d="M1666 585 c-11 -8 -46 -20 -78 -27 -73 -15 -79 -38 -10 -38 26 0 53
-5 60 -12 17 -17 17 -369 0 -386 -7 -7 -29 -12 -50 -12 -27 0 -38 -4 -38 -15
0 -13 21 -15 130 -15 107 0 130 3 130 14 0 11 -15 16 -52 18 l-53 3 -3 243
c-1 133 -6 242 -10 242 -4 0 -16 -7 -26 -15z"/>
<path d="M2090 417 c-13 -7 -37 -37 -52 -67 l-28 -55 0 64 c0 61 -1 63 -22 57
-13 -3 -40 -6 -60 -6 -27 0 -38 -4 -38 -15 0 -9 9 -15 24 -15 41 0 47 -19 44
-146 l-3 -119 -32 -3 c-21 -2 -33 -9 -33 -18 0 -11 20 -14 105 -14 85 0 105 3
105 14 0 10 -13 16 -37 18 l-38 3 -3 63 c-4 77 18 159 54 201 34 41 44 39 44
-8 0 -32 4 -41 22 -47 43 -13 64 50 28 86 -23 23 -45 25 -80 7z"/>
<path d="M2334 419 c-42 -12 -91 -69 -100 -114 -24 -131 41 -231 150 -230 103
1 161 64 161 175 0 81 -26 129 -89 159 -45 22 -72 25 -122 10z m97 -29 c33
-18 49 -64 49 -140 0 -105 -29 -150 -98 -150 -53 0 -92 63 -92 150 0 113 67
179 141 140z"/>
</g>
</svg>
