<?xml version="1.0" standalone="no"?>
<!DOCTYPE svg PUBLIC "-//W3C//DTD SVG 20010904//EN"
 "http://www.w3.org/TR/2001/REC-SVG-20010904/DTD/svg10.dtd">
<svg version="1.0" xmlns="http://www.w3.org/2000/svg"
 width="1350.000000pt" height="68.000000pt" viewBox="0 0 1350.000000 68.000000"
 preserveAspectRatio="xMidYMid meet">

<g transform="translate(0.000000,68.000000) scale(0.100000,-0.100000)"
fill="#000000" stroke="none">
<path d="M530 340 l0 -340 60 0 60 0 0 340 0 340 -60 0 -60 0 0 -340z"/>
<path d="M1610 335 l0 -335 60 0 60 0 0 140 0 140 425 0 425 0 0 60 0 60 -425
0 -425 0 0 135 0 135 -60 0 -60 0 0 -335z"/>
<path d="M2580 596 c0 -10 14 -16 43 -18 l42 -3 0 -235 0 -235 -42 -3 c-29 -2
-43 -8 -43 -18 0 -11 23 -14 130 -14 107 0 130 3 130 14 0 11 -14 16 -47 18
l-48 3 -3 118 -3 117 44 0 c51 0 83 -27 93 -78 13 -67 24 -28 24 88 0 73 -4
120 -10 120 -5 0 -10 -9 -10 -19 0 -11 -12 -33 -26 -50 -22 -26 -33 -31 -70
-31 l-45 0 3 103 3 102 77 3 c97 4 132 -12 159 -71 10 -23 19 -50 19 -59 0
-10 5 -18 10 -18 6 0 10 37 10 90 l0 90 -220 0 c-185 0 -220 -2 -220 -14z"/>
<path d="M3070 596 c0 -12 10 -16 40 -16 33 0 41 -4 45 -22 3 -13 4 -120 3
-238 l-3 -215 -42 -3 c-29 -2 -43 -8 -43 -18 0 -11 23 -14 130 -14 107 0 130
3 130 14 0 11 -14 16 -47 18 l-48 3 -3 103 -3 102 64 0 c137 0 216 49 224 137
5 62 -20 110 -73 137 -34 18 -61 21 -206 24 -148 3 -168 2 -168 -12z m319 -30
c47 -25 64 -95 40 -165 -15 -43 -54 -61 -134 -61 l-65 0 0 113 c0 63 3 117 7
120 12 13 124 7 152 -7z"/>
<path d="M4077 453 c-26 -87 -63 -209 -81 -271 -34 -111 -34 -112 -12 -112 19
0 28 23 99 263 43 144 77 265 77 270 0 4 -8 7 -18 7 -15 0 -27 -29 -65 -157z"/>
<path d="M3756 575 c-11 -8 -46 -20 -78 -27 -73 -15 -79 -38 -10 -38 26 0 53
-5 60 -12 17 -17 17 -369 0 -386 -7 -7 -29 -12 -50 -12 -27 0 -38 -4 -38 -15
0 -13 21 -15 130 -15 107 0 130 3 130 14 0 11 -15 16 -52 18 l-53 3 -3 243
c-1 133 -6 242 -10 242 -4 0 -16 -7 -26 -15z"/>
</g>
</svg>
